# xmcd CD database file
#
# Track frame offsets:
#	150
#	20828
#	41285
#	61182
#	78354
#	93804
#	112158
#	134825
#	150535
#	166622
#
# Disc length: 2487 seconds
#
# Revision: 6
# Processed by: cddbd v1.5.1PL0 Copyright (c) Steve Scherf et al.
# Submitted via: CDex 1.51
#
DISCID=7609b50a
DTITLE=松任谷由実 - ＡＬＡＲＭ ａ'ｌａ ｍｏｄｅ
DYEAR=1986
DGENRE=J-pop
TTITLE0=Ｈｏｌｉｄａｙ ｉｎ Ａｃａｐｕｌｃｏ
TTITLE1=ジェラシーと云う名の悪夢
TTITLE2=パジャマにレインコート
TTITLE3=白い服、白い靴
TTITLE4=土曜日は大キライ
TTITLE5=ホライズンを追いかけて〜Ｌ'ａｖｅｎｔｕｒｅ ａｕ ｄｅｓｅｒｔ
TTITLE6=Ａｕｔｕｍｎ Ｐａｒｋ
TTITLE7=２０ ｍｉｎｕｔｅｓ
TTITLE8=３-Ｄのクリスマスカード
TTITLE9=さよならハリケーン
EXTD=YEAR: 1986
EXTT0=
EXTT1=
EXTT2=
EXTT3=
EXTT4=
EXTT5=
EXTT6=
EXTT7=
EXTT8=
EXTT9=
PLAYORDER=
